REM GENRE Alternative Rock
REM DATE 1996
REM DISCID B430AF0B
REM COMMENT 2018, TPLP85
PERFORMER "Skunk Anansie"
TITLE "Stoosh"
FILE "Stoosh.flac" WAVE
  TRACK 01 AUDIO
    TITLE "Yes It’s Fucking Political"
    INDEX 01 00:00:00
  TRACK 02 AUDIO
    TITLE "All I Want"
    INDEX 01 03:52:70
  TRACK 03 AUDIO
    TITLE "She’s My Heroine"
    INDEX 01 07:45:01
  TRACK 04 AUDIO
    TITLE "Infidelity (Only You)"
    INDEX 01 12:50:24
  TRACK 05 AUDIO
    TITLE "Hedonism (Just Because You Feel Good)"
    INDEX 01 18:50:51
  TRACK 06 AUDIO
    TITLE "Twisted (Everyday Hurts)"
    INDEX 01 22:18:30
  TRACK 07 AUDIO
    TITLE "We Love Your Apathy"
    INDEX 01 26:32:74
  TRACK 08 AUDIO
    TITLE "Brazen (Weep)"
    INDEX 01 31:44:74
  TRACK 09 AUDIO
    TITLE "Pickin On Me"
    INDEX 01 36:17:57
  TRACK 10 AUDIO
    TITLE "Milk Is My Sugar"
    INDEX 01 39:33:14
  TRACK 11 AUDIO
    TITLE "Glorious Pop Song"
    INDEX 01 43:23:74
